<?xml version="1.0" standalone="no"?>
<!DOCTYPE svg PUBLIC "-//W3C//DTD SVG 20010904//EN"
 "http://www.w3.org/TR/2001/REC-SVG-20010904/DTD/svg10.dtd">
<svg version="1.0" xmlns="http://www.w3.org/2000/svg"
 width="1699.000000pt" height="1920.000000pt" viewBox="0 0 1699.000000 1920.000000"
 preserveAspectRatio="xMidYMid meet">

<g transform="translate(0.000000,1920.000000) scale(0.100000,-0.100000)"
fill="#000000" stroke="none">
<path d="M8185 19189 c-1015 -77 -1861 -445 -2505 -1089 -878 -877 -1285
-2191 -1110 -3577 130 -1024 602 -2011 1309 -2735 68 -71 121 -128 118 -128
-3 0 -88 24 -189 54 -916 270 -1560 345 -2228 261 -765 -97 -1499 -417 -2096
-912 -760 -631 -1271 -1519 -1428 -2480 -45 -276 -59 -470 -53 -758 8 -348 43
-621 122 -930 400 -1570 1690 -2762 3285 -3034 243 -42 405 -54 690 -55 295 0
454 14 710 60 1103 200 2122 902 2933 2018 68 94 67 101 32 -160 -141 -1038
-364 -2016 -674 -2944 -338 -1010 -743 -1870 -1252 -2654 l-78 -121 1365 -3
c751 -1 1977 -1 2724 0 l1359 3 -85 130 c-804 1233 -1421 2853 -1763 4630 -76
395 -187 1116 -179 1167 2 16 26 -10 95 -103 615 -831 1361 -1437 2159 -1752
708 -280 1477 -347 2239 -196 1059 210 1990 827 2594 1719 384 568 604 1165
688 1865 24 210 24 670 0 880 -47 396 -129 724 -264 1065 -375 946 -1077 1711
-1989 2168 -740 371 -1602 508 -2433 387 -354 -52 -808 -159 -1276 -302 -11
-3 36 52 104 122 676 700 1123 1595 1285 2575 39 233 56 421 63 675 27 1039
-289 2029 -883 2770 -708 883 -1772 1374 -3014 1390 -140 2 -309 -1 -375 -6z"/>
</g>
</svg>
