<?xml version="1.0" standalone="no"?>
<!DOCTYPE svg PUBLIC "-//W3C//DTD SVG 20010904//EN"
 "http://www.w3.org/TR/2001/REC-SVG-20010904/DTD/svg10.dtd">
<svg version="1.0" xmlns="http://www.w3.org/2000/svg"
 width="860.000000pt" height="800.000000pt" viewBox="0 0 860.000000 800.000000"
 preserveAspectRatio="xMidYMid meet">

<g transform="translate(0.000000,800.000000) scale(0.100000,-0.100000)"
fill="#000000" stroke="none">
<path d="M4238 7508 c-130 -196 -334 -434 -540 -633 -236 -227 -475 -424 -978
-805 -541 -410 -785 -613 -985 -822 -440 -458 -610 -853 -632 -1468 -17 -473
106 -851 364 -1121 275 -287 656 -435 1178 -455 254 -10 516 24 710 93 101 36
269 125 350 186 95 71 211 190 271 277 39 58 50 68 52 51 9 -56 -54 -663 -89
-871 -118 -691 -352 -1072 -813 -1319 -149 -80 -299 -135 -576 -210 -22 -6
607 -9 1750 -9 l1785 -1 -129 35 c-817 220 -1173 654 -1311 1599 -37 252 -89
815 -74 797 3 -4 28 -38 55 -77 63 -92 200 -227 296 -292 273 -188 619 -275
1034 -260 861 32 1380 422 1516 1142 19 102 22 153 22 345 0 233 -11 349 -56
564 -84 410 -340 800 -788 1199 -178 160 -350 297 -765 612 -548 416 -745 579
-989 815 -215 208 -450 487 -558 660 -17 28 -34 50 -38 50 -4 0 -32 -37 -62
-82z"/>
</g>
</svg>
