<?xml version="1.0" standalone="no"?>
<!DOCTYPE svg PUBLIC "-//W3C//DTD SVG 20010904//EN"
 "http://www.w3.org/TR/2001/REC-SVG-20010904/DTD/svg10.dtd">
<svg version="1.0" xmlns="http://www.w3.org/2000/svg"
 width="1280.000000pt" height="1270.000000pt" viewBox="0 0 1280.000000 1270.000000"
 preserveAspectRatio="xMidYMid meet">
<metadata>
Created by potrace 1.15, written by Peter Selinger 2001-2017
</metadata>
<g transform="translate(0.000000,1270.000000) scale(0.100000,-0.100000)"
fill="#000000" stroke="none">
<path d="M4042 12690 c-3910 -6 -3912 -6 -3940 -27 -15 -11 -32 -31 -38 -44
-9 -17 -15 -678 -23 -2429 -6 -1323 -16 -3276 -21 -4340 -6 -1064 -11 -2459
-12 -3100 l-3 -1165 23 -119 c98 -521 360 -934 762 -1203 161 -108 386 -200
585 -240 86 -17 316 -18 4940 -21 3454 -2 4881 0 4958 8 673 68 1242 586 1427
1298 46 178 50 224 60 662 8 409 34 6539 35 8285 0 840 0 852 -23 974 -123
677 -546 1194 -1141 1391 -240 80 -91 74 -1986 76 -929 0 -3451 -2 -5603 -6z
m7370 -218 c268 -61 487 -177 680 -360 286 -273 458 -635 497 -1048 6 -63 6
-888 0 -2200 -4 -1154 -13 -3240 -19 -4634 -6 -1558 -14 -2569 -21 -2624 -74
-665 -508 -1202 -1099 -1360 -162 -43 51 -41 -5080 -41 l-4875 0 -102 23
c-271 60 -490 175 -685 360 -286 273 -458 636 -497 1047 -5 61 -6 779 0 1860
5 968 13 2669 19 3780 5 1111 13 2737 17 3613 l6 1592 1021 1 c562 1 2695 5
4741 9 2046 3 4076 6 4510 5 774 -1 792 -2 887 -23z"/>
<path d="M6071 11699 c-454 -27 -893 -170 -1221 -398 -773 -536 -1009 -1465
-621 -2444 80 -201 220 -466 338 -636 24 -35 42 -65 40 -67 -2 -2 -15 5 -30
16 -37 29 -249 158 -347 212 -278 151 -619 267 -925 314 -170 26 -463 24 -630
-5 -295 -52 -558 -161 -777 -323 -460 -340 -742 -850 -845 -1523 -26 -173 -26
-668 0 -840 106 -688 410 -1211 894 -1535 798 -533 1890 -387 2897 388 103 79
202 161 334 278 29 26 55 44 57 42 12 -11 90 -232 113 -318 23 -85 26 -113 26
-275 0 -167 -2 -186 -27 -268 -105 -341 -333 -594 -923 -1022 -590 -428 -720
-530 -914 -725 -200 -199 -315 -351 -409 -537 -106 -211 -154 -386 -170 -617
-10 -134 -2 -172 36 -187 15 -5 1260 -9 3174 -9 3136 0 3149 0 3169 20 22 22
22 19 20 148 -2 119 -22 257 -60 398 -85 319 -250 591 -535 883 -154 158 -277
265 -585 511 -304 243 -432 354 -560 487 -228 235 -341 440 -380 686 -34 208
17 521 125 771 l16 39 52 -50 c193 -186 540 -436 804 -581 306 -168 602 -274
935 -335 164 -29 567 -32 718 -4 401 74 736 242 1014 508 389 372 614 869 677
1493 15 149 6 531 -15 672 -86 570 -292 999 -644 1336 -279 267 -626 433
-1022 489 -122 18 -442 15 -568 -5 -236 -37 -472 -104 -681 -193 -187 -79
-465 -233 -614 -339 -26 -19 -49 -34 -52 -34 -2 0 29 51 69 113 237 365 393
744 457 1111 80 457 22 878 -172 1256 -87 168 -175 293 -304 428 -387 406
-916 632 -1575 672 -91 5 -178 9 -195 8 -16 0 -90 -5 -164 -9z"/>
</g>
</svg>
